<svg class="icon" viewBox="0 0 1024 1024" version="1.1" xmlns="http://www.w3.org/2000/svg" fill="#9575CD"
     width="200" height="200">
  <path
    d="M84.48 260.608c-59.904 153.6 8.704 266.24 101.376 316.416 40.448 23.552 80.896 33.792 119.296 33.792 68.608 0 129.536-31.744 173.056-74.24l-2.56-2.56c-34.304 20.48-67.584 29.184-98.304 29.184-56.32 0-105.472-28.672-139.264-66.56l5.12-4.608c32.768 36.864 79.36 64 133.632 64 29.696 0 61.44-8.192 94.208-27.648l-1.024-2.56c-12.288 4.096-25.088 7.168-38.4 7.168-15.36 0-32.256-4.096-51.712-15.872-69.12-41.984-25.6-110.592-97.792-164.352-22.528-16.896-42.496-21.504-60.928-21.504-11.264 0-22.016 1.536-32.256 3.584-10.24 1.536-20.48 3.584-30.208 3.584-11.776 0-24.064-2.56-36.352-10.752-29.696-20.992-31.744-42.496-37.888-67.072m667.136 22.016c-12.8 0-25.6 1.024-37.888 3.072-128.512 15.36-192.512 112.128-207.872 203.776l4.096 2.048c35.328-83.456 102.912-114.176 168.448-114.176 16.384 0 32.256 2.048 47.616 5.12l-1.536 7.168c-14.848-3.584-30.72-5.12-46.08-5.12-63.488 0-129.024 30.208-162.816 111.616l2.048 2.048c15.872-22.528 34.816-43.52 77.824-48.128 3.584-0.512 7.168-0.512 10.752-0.512 70.656 0 80.384 73.216 166.4 73.216 83.456 0 83.456-72.192 142.336-75.264h6.144c31.232 0 45.568 14.848 64.512 29.696-39.936-140.288-139.264-194.56-233.984-194.56m-186.368 222.208c-14.336 0-29.184 1.024-43.008 3.584l0.512 4.608c108.032 8.704 159.744 86.528 169.984 162.816l-7.168 1.024c-10.24-73.728-58.88-147.968-163.328-156.672l-1.024 3.584c25.088 7.68 49.152 19.968 66.048 56.832 33.28 73.728-40.96 105.472-11.776 190.976 26.624 78.848 95.232 55.808 117.248 110.592 13.312 33.28 3.072 52.224-5.632 76.288 136.192-93.184 142.848-224.768 93.696-318.464-46.592-98.816-134.144-135.168-215.552-135.168m-57.344 34.816l-3.584 1.536c26.624 108.544-33.28 182.272-104.448 215.552l-3.072-6.656c68.608-31.744 126.464-102.4 100.352-207.36h-2.56c0.512 27.648-2.56 56.32-34.816 84.992-22.528 19.968-43.52 24.064-65.024 24.064-7.68 0-15.36-0.512-23.552-1.024-7.68-0.512-15.872-1.024-24.064-1.024-22.528 0-46.592 4.096-73.216 23.552-67.584 49.152-25.088 107.52-70.656 144.896-18.944 15.36-34.816 18.432-50.688 18.432-7.68 0-15.36-0.512-23.552-1.024 58.368 46.08 115.712 64.512 168.448 64.512 65.024 0 122.368-28.16 163.328-69.12 96.256-90.112 89.6-207.872 47.104-291.328m-169.472 272.896l-4.096-31.744-31.744-6.144 29.184-13.824-4.096-31.744 22.016 23.552 29.184-13.824-15.36 28.16 22.016 23.552-31.744-6.144-15.36 28.16m343.552-38.4l-4.608-31.744-31.744-5.632 28.672-13.824-4.608-31.744 22.528 23.04 28.672-14.336-14.848 28.16 22.016 23.04-31.744-5.632-14.336 28.672m-482.816-282.624l-3.584-31.744-31.232-6.656 29.184-13.312-3.584-31.744 21.504 23.552 29.184-13.312-15.872 27.648 21.504 23.552-31.232-6.656-15.872 28.672m562.688-46.592l-4.096-31.744-31.744-6.144 29.184-13.824-4.096-31.744 22.016 23.552 29.184-13.824-15.36 28.16 22.016 23.552-31.744-6.144-15.36 28.16m-294.912-179.712l-2.56-31.744-31.232-7.168 29.696-12.288-2.56-31.744 20.992 24.576 29.696-12.288-16.896 27.648 20.992 24.576-31.232-7.168-16.896 25.6m125.44-219.136c-144.896 0-223.744 91.648-243.712 188.416-31.232 128 39.936 222.72 121.856 268.8l1.536-3.072c-83.456-76.288-73.216-172.032-31.744-238.592l6.144 3.584c-39.936 64.512-49.664 155.648 30.208 229.376l2.048-1.536c-15.872-23.04-28.672-48.128-17.92-89.6 20.992-78.336 98.304-55.808 130.048-140.288 29.184-77.824-38.4-103.424-20.992-159.744 10.752-34.304 30.72-42.496 52.736-55.808-10.24-1.536-20.48-1.536-30.208-1.536"></path>
</svg>
