<svg class="icon" viewBox="0 0 1024 1024" version="1.1" xmlns="http://www.w3.org/2000/svg" p-id="1632"
     width="200" height="200">
  <path
    d="M915.8 287.4c0 7.9-10.6 26.3-31.7 55.1-21.2 28.8-42.8 43.3-64.9 43.3s-47.1-6.4-75-19.1c-27.9-12.8-56.7-20.9-86.5-24.6-29.8-3.6-80.8-5.5-153.2-5.5-122.1 0-217.1 14.6-285.2 43.7-39.3 16.4-63.9 24.6-74.1 24.6-10.1 0-16.7-5.6-19.8-16.9-3.1-11.2-4.6-29.3-4.6-54.2 0-24.9 6.4-37.3 19.3-37.3 5.5 0 12 2.7 19.3 8.2 2.4 1.8 7.7 2.7 15.6 2.7 8 0 16.7-1.7 26.2-5s33.9-7.6 73.1-12.8c39.2-5.2 80.6-9.3 124.2-12.3 20.8-1.2 35.1-5.3 42.8-12.3 7.7-7 11.5-19.3 11.5-36.9 0-6.1-0.5-11.1-1.4-15-0.9-3.9-1.4-7.4-1.4-10.5 0-12.8 5.1-19.1 15.2-19.1s26.5 4.9 49.2 14.6c22.7 9.7 37.7 22.3 45.1 37.8s13.8 25.2 19.3 29.1c5.5 4 12.9 6.5 22.1 7.7 45.4 3 77.6 7.1 96.6 12.3 19 5.2 37.7 7.7 56.1 7.7s32.7-1.7 42.8-5c10.1-3.3 23.5-5 40-5s27.6 0.8 33.1 2.3c5.5 1.5 10.4 2.3 14.7 2.3 4.3 0 8.3-1.5 12-4.6 3.7-3 7.8-4.6 12.4-4.6 4.9 0.2 7.2 3.3 7.2 9.3z m-518 358.9c3.7 0 6.4 3 8.3 9.1 1.8 6.1 2.8 10.9 2.8 14.6 0 16.4-25.5 44.6-76.4 84.7-50.9 40.1-91.1 60.1-120.5 60.1-15.3 0-29.4-4.3-42.3-12.8-12.9-8.5-22.9-22.5-29.9-41.9-7.1-19.4-10.6-32.5-10.6-39.2 0-6.7 2.8-10 8.3-10s12.1 0.9 19.8 2.7c7.7 1.8 14.1 2.7 19.3 2.7 5.2 0 16.7-2.7 34.5-8.2l75.4-21.9c32.5-9.7 55.7-17 69.5-21.9 13.8-4.9 23.6-9.1 29.4-12.8 5.8-3.4 10-5.2 12.4-5.2z m350.6-216.8c0 10.3-3.5 18.7-10.6 25-7.1 6.4-12.4 12.6-16.1 18.7-3.7 6.1-9.5 17-17.5 32.8-8 15.8-12.3 25.5-12.9 29.1-0.6 3.6-0.9 13.7-0.9 30.1 0 13.4-19 20-57 20l-72.7-1.8c-14.7 0-24.1 3.2-28.1 9.6-4 6.4-6.8 21.1-8.3 44.2-1.5 23.1-2.3 42.4-2.3 57.8s0.8 30.2 2.3 44.2c1.5 14 2.3 24.9 2.3 32.8 0 54-19.6 81.1-58.9 81.1-8 0-13.7-1.5-17-4.6-3.4-3-5.1-10-5.1-20.9s2.9-35.4 8.7-73.3c5.8-37.9 8.7-82.4 8.7-133.4 0-14-1.5-22.9-4.6-26.9-3.1-3.9-9.1-5.9-17.9-5.9-8.9 0-26.8 2.3-53.8 6.8-27 4.6-54.9 14.1-83.7 28.7-6.8 2.4-12.3 3.6-16.6 3.6-9.8 0-14.7-4.4-14.7-13.2 0-8.8 2.8-17.6 8.3-26.4 5.5-8.8 8.7-16.7 9.7-23.7 0.9-7 1.4-21.4 1.4-43.3s-1.5-37.9-4.6-48.3c-3.1-10.3-10.1-19.4-21.2-27.3-11-7.9-16.6-16.2-16.6-25s8.3-13.8 24.8-15c35.6-2.4 55.5-4.2 59.8-5.5 68.7-14.6 131.1-21.9 187.2-21.9 56.1 0 105.3 5.2 147.7 15.5 18.4 5.5 33.6 8.2 45.5 8.2 12 0 20.7 2.7 26.2 8.2 5.7 5.4 8.5 12.1 8.5 20z m-127 88.4c12.9 0 21.8-5 26.7-15 4.9-10 7.4-17.4 7.4-22.3 0-10.9-10.1-19.3-30.4-25-20.2-5.8-48.2-8.7-83.7-8.7-35.6 0-71.5 4.1-107.6 12.3-36.2 8.2-57.8 15.8-64.9 22.8-7.1 7-10.6 20.5-10.6 40.5 0 9.7 2.6 14.6 7.8 14.6 5.2 0 12.4-1.5 21.6-4.6 36.8-12.8 87.1-19.1 150.9-19.1 25.1 0 44.3 0.8 57.5 2.3 13.2 1.4 21.6 2.2 25.3 2.2z m253.9 218.5c0 6.7-6.4 19.6-19.3 38.7s-28.2 33.2-46 42.4c-17.8 9.1-35 13.7-51.5 13.7-16.6 0-31.3-2.7-44.2-8.2-12.9-5.5-31.1-20.2-54.7-44.2-23.6-24-43.7-46.6-60.3-67.9-16.6-21.2-24.8-37.8-24.8-49.6 0-11.8 6.7-17.8 20.2-17.8s29.7 4.3 48.8 12.8c33.7 15.2 60.7 23.4 81 24.6 12.3 0.6 37.1 7.3 74.5 20 37.4 12.8 59.5 20.5 66.2 23.2 6.7 2.8 10.1 6.9 10.1 12.3z"
    fill="#9A0000"></path>
</svg>
