<svg  class="icon" viewBox="0 0 1024 1024" version="1.1" xmlns="http://www.w3.org/2000/svg" fill="#FFB74D"
      width="200" height="200">
  <path
    d="M256.87552 660.1728a17.066667 17.066667 0 0 0-22.289067-9.8304c-75.3664 29.934933-133.188267 54.920533-176.7424 76.424533a102.912 102.912 0 0 0-56.5248 108.612267 102.5024 102.5024 0 0 0 101.717334 87.04c12.8 0 25.429333-2.389333 37.410133-7.0656l171.451733-65.467733a17.066667 17.066667 0 0 0 9.728-22.357334 8109.6704 8109.6704 0 0 1-64.750933-167.355733zM1024.05632 580.3008c0-139.093333-119.569067-251.8016-261.3248-237.602133 1.911467-6.280533 3.140267-12.424533 3.140267-18.363734 0-9.4208-10.3424-17.1008-19.7632-17.1008-51.9168 0-187.972267 47.957333-216.507734 166.673067-3.1744 13.141333-9.181867 26.5216-18.3296 40.8576a16.964267 16.964267 0 0 0-1.570133 15.291733l93.866667 245.930667a16.930133 16.930133 0 0 0 9.284266 9.6256c10.4448 4.4032 19.0464 8.9088 26.282667 13.7216a329.659733 329.659733 0 0 0 181.009067 54.613333c54.9888 0 103.662933-14.677333 130.184533-39.2192a17.134933 17.134933 0 0 0-8.6016-29.354666 364.066133 364.066133 0 0 1-25.6-5.700267A238.318933 238.318933 0 0 0 1024.05632 580.3008z m-153.019733 185.924267c-3.106133-1.024-6.212267-1.979733-9.352534-3.037867l-9.489066-3.208533a1266.039467 1266.039467 0 0 1-55.671467-20.855467l-4.642133-1.877333a1233.646933 1233.646933 0 0 1-30.378667-12.936534 655.1552 655.1552 0 0 1-20.855467-9.762133 310.613333 310.613333 0 0 1-7.816533-4.027733c-1.536-0.8192-3.3792-1.7408-4.676267-2.491734 3.9936-4.334933 9.250133-9.591467 13.789867-14.199466 30.037333-30.242133 71.202133-71.645867 66.833067-113.0496a49.425067 49.425067 0 0 0-3.037867-12.834134c-10.581333-27.374933-44.202667-37.341867-74.308267-46.250666-23.313067-6.894933-49.732267-14.7456-51.9168-27.9552-0.785067-4.7104 0.170667-10.3424 2.3552-16.622934 6.5536-18.8416 24.200533-43.2128 39.150934-63.829333 8.226133-11.400533 16.247467-22.528 23.210666-33.416533C876.49792 352.597333 989.922987 454.109867 989.922987 580.3008a204.526933 204.526933 0 0 1-118.8864 185.924267z m-397.380267-234.837334c-17.749333-44.407467-10.3424-103.2192 18.466133-146.432 78.7456-118.0672 62.020267-260.846933 15.394134-311.1936a17.408 17.408 0 0 0-17.339734-4.778666 17.2032 17.2032 0 0 0-12.014933 13.380266c-1.399467 7.7824-3.345067 16.418133-5.700267 25.6A238.148267 238.148267 0 0 0 273.122987 0.034133c-131.720533 0-238.933333 107.178667-238.933334 238.933334 0 7.3728 0.6144 14.882133 1.365334 22.4256a63.658667 63.658667 0 0 0-18.397867-3.140267 17.066667 17.066667 0 0 0-17.066667 16.384c-1.9456 50.722133 44.7488 190.5664 166.638934 219.8528 42.769067 10.24 80.247467 42.837333 95.470933 83.012267l17.988267 47.7184c39.1168 103.936 92.672 246.340267 139.400533 340.957866a102.843733 102.843733 0 0 0 108.612267 56.5248 102.5024 102.5024 0 0 0 73.284266-50.4832 102.1952 102.1952 0 0 0 6.621867-88.610133l-134.4512-352.221867z m-17.681067-368.981333a1050.385067 1050.385067 0 0 1-23.893333 64.6144l-2.2528 5.563733a961.604267 961.604267 0 0 1-18.261333 41.915734l-4.266667 8.840533c-1.536 3.072-2.935467 5.802667-4.3008 8.328533l-2.2528 4.266667c-4.130133-3.822933-9.045333-8.704-13.5168-13.1072l-0.750933-0.7168-1.2288-1.194667c-18.5344-18.397867-41.2672-40.823467-65.672534-54.203733-3.242667-1.774933-6.5536-3.106133-9.8304-4.539733-1.774933-0.785067-3.515733-1.774933-5.290666-2.423467-2.321067-0.853333-4.676267-1.194667-7.031467-1.8432a64.853333 64.853333 0 0 0-23.893333-2.56c-37.341867 3.925333-48.913067 42.939733-59.0848 77.346133-6.894933 23.313067-14.7456 49.698133-31.266134 52.155734-19.456 0-50.141867-22.152533-77.2096-41.745067a735.402667 735.402667 0 0 0-33.348266-23.278933A202.581333 202.581333 0 0 1 68.322987 238.967467c0-112.9472 91.8528-204.8 204.8-204.8a204.561067 204.561067 0 0 1 185.924266 118.852266l-3.072 9.386667z"></path>
</svg>
