<svg class="icon" viewBox="0 0 1024 1024" version="1.1" xmlns="http://www.w3.org/2000/svg" fill="#424242"
     width="200" height="200">
  <defs>
    <style type="text/css"></style>
  </defs>
  <path
    d="M364.992 457.856c-172.8 46.208-294.72 198.272-300.992 375.232 0 111.04 221.312 166.656 441.92 166.656 220.672 0 440.96-55.68 440.96-166.656-5.696-178.048-128.448-330.88-301.824-376.704v1.664c-35.328-24.192-175.68-33.28-280.064-0.192z m195.136 326.272l-56.064 55.424L448 784.128l56.064-181.76 56.064 181.76z m-54.208 153.28C275.264 937.408 128 875.328 128 835.2c8.576-183.04 157.056-328.768 341.568-335.488l-84.096 284.48a31.36 31.36 0 0 0 8.32 31.168l90.24 89.472a31.168 31.168 0 0 0 44.736 0l89.472-92.16c8.32-8 11.712-19.904 8.32-31.232L541.44 499.648c183.872 6.272 332.608 151.04 342.208 333.44 0 39.936-147.2 102.272-377.92 102.272v2.048h0.192z"></path>
  <path d="M512 32a224 224 0 1 0 0 448 224 224 0 0 0 0-448z m0 64a160 160 0 1 1 0 320 160 160 0 0 1 0-320z"></path>
</svg>
