<svg class="icon" viewBox="0 0 1024 1024" version="1.1" xmlns="http://www.w3.org/2000/svg" fill="#FFE57F"
     width="200" height="200">
  <path
    d="M25.28 891.904c-3.84-1.792-6.208-4.224-7.936-8.064-1.216-2.624-1.344-4.16-1.344-16.64 0-11.968 0.192-14.08 1.216-16.32 1.28-2.88 3.968-6.08 5.12-6.08 0.384 0 0.704-0.256 0.704-0.512 0-0.32 0.704-0.896 1.6-1.28 1.28-0.576 120.512-0.768 488.832-0.768h487.168l3.2 1.536c3.84 1.792 6.208 4.224 7.936 8.064 1.216 2.624 1.344 4.16 1.344 16.64 0 11.968-0.192 14.08-1.216 16.32-1.408 3.136-3.456 5.44-6.464 7.296l-2.24 1.344H28.48l-3.2-1.536zM216.064 775.808c-0.128-0.256-0.448-1.6-0.704-3.008-0.192-1.408-0.96-5.568-1.6-9.28-3.008-16.32-3.84-27.968-3.84-51.84 0-18.624 0.192-24.704 1.28-33.6 2.24-19.072 5.824-37.248 10.368-52.48 1.984-6.592 6.784-21.184 7.808-23.552 0.512-1.088 1.344-3.2 1.856-4.608 2.432-6.272 7.744-17.92 11.52-25.28 3.84-7.488 4.736-9.152 8.256-15.168 0.704-1.344 1.664-3.008 2.048-3.712 1.536-2.752 11.264-17.664 11.904-18.24 0.192-0.192 1.472-1.984 2.816-3.968 1.408-2.048 2.752-3.712 3.072-3.712 0.256 0 0.512-0.32 0.512-0.704 0-0.64 8.512-11.52 12.544-15.936 14.144-15.68 16.896-18.496 32.256-32.256 4.48-4.032 15.296-12.544 15.936-12.544 0.384 0 0.704-0.256 0.704-0.512 0-0.32 1.664-1.664 3.712-3.072 1.984-1.344 3.776-2.624 3.968-2.816 0.576-0.64 15.488-10.368 18.24-11.904 0.704-0.384 2.368-1.344 3.712-2.048 6.016-3.52 7.68-4.416 15.168-8.256 7.36-3.776 19.008-9.088 25.28-11.52 1.408-0.512 3.52-1.344 4.608-1.856 2.368-1.024 16.96-5.824 23.552-7.808 15.232-4.544 33.408-8.128 52.48-10.368 15.68-1.856 51.52-1.856 67.2 0 19.072 2.24 37.248 5.824 52.48 10.368 6.592 1.984 21.184 6.784 23.552 7.808 1.088 0.512 3.2 1.344 4.608 1.856 6.272 2.432 17.92 7.744 25.28 11.52 7.488 3.84 9.152 4.736 15.232 8.256 1.28 0.704 2.944 1.664 3.648 2.048 2.752 1.536 17.664 11.264 18.24 11.904 0.192 0.192 1.984 1.472 4.032 2.816 1.984 1.408 3.648 2.752 3.648 3.072 0 0.256 0.32 0.512 0.704 0.512 0.64 0 11.52 8.512 15.936 12.544 15.68 14.144 18.496 16.896 32.256 32.256 4.032 4.48 12.544 15.296 12.544 15.936 0 0.384 0.256 0.704 0.512 0.704 0.32 0 1.664 1.664 3.072 3.712 1.344 1.984 2.624 3.776 2.816 3.968 0.64 0.576 10.368 15.488 11.904 18.24 0.384 0.704 1.344 2.368 2.048 3.712 3.52 6.016 4.416 7.68 8.256 15.168 3.776 7.36 9.088 19.008 11.52 25.28 0.512 1.408 1.344 3.52 1.856 4.608 1.024 2.368 5.824 16.96 7.808 23.552 4.544 15.232 8.128 33.408 10.368 52.48 1.856 15.68 1.856 51.52 0 67.2-1.088 9.344-2.816 20.352-4.416 28.48l-0.448 2.24-29.504 0.192-29.504 0.128 0.64-2.688c0.32-1.536 1.088-5.056 1.792-7.872 8.64-37.056 7.616-80.768-2.688-118.72-3.456-12.8-5.12-17.664-10.176-30.208-3.072-7.488-10.88-23.68-13.696-28.352-0.896-1.408-2.24-3.648-3.008-5.056-0.832-1.344-1.728-2.944-2.112-3.52-0.32-0.576-1.344-2.176-2.176-3.584-0.896-1.408-1.728-2.688-1.984-2.88-0.32-0.32-4.736-6.784-6.08-8.896-0.32-0.576-0.832-1.152-1.024-1.344-0.256-0.192-1.984-2.368-3.84-4.864-11.2-14.848-29.504-33.152-44.352-44.352-2.496-1.856-4.672-3.584-4.864-3.84-0.192-0.192-0.768-0.64-1.344-1.024-2.112-1.344-8.576-5.76-8.896-6.08-0.192-0.256-1.472-1.088-2.88-1.984-1.408-0.832-3.008-1.792-3.584-2.176-1.088-0.64-4.096-2.432-8.576-5.056-5.568-3.264-21.248-10.88-28.288-13.76-12.608-5.056-17.472-6.72-30.272-10.176-41.92-11.392-87.36-11.392-129.28 0-13.952 3.776-23.552 7.104-36.16 12.672-3.968 1.728-19.52 9.6-22.4 11.264-4.48 2.624-7.488 4.416-8.576 5.056-0.576 0.384-2.176 1.344-3.584 2.176-1.408 0.896-2.688 1.728-2.88 1.984-0.32 0.32-6.592 4.608-8.896 6.08-0.512 0.384-1.28 0.96-1.664 1.28-0.32 0.384-2.816 2.304-5.44 4.288s-5.504 4.288-6.4 5.12c-0.832 0.832-2.688 2.432-4.16 3.648-9.6 8-24.896 24.192-32.896 34.88-1.856 2.496-3.584 4.672-3.84 4.864-0.192 0.192-0.64 0.768-1.024 1.344-1.344 2.112-5.76 8.576-6.08 8.896-0.256 0.192-1.088 1.472-1.984 2.88-0.832 1.408-1.792 3.008-2.176 3.584-0.64 1.088-2.432 4.096-5.056 8.576-1.664 2.88-9.536 18.432-11.264 22.4-14.016 31.872-21.248 65.984-21.248 100.8 0 17.6 2.304 38.656 5.888 54.08 0.704 2.816 1.472 6.336 1.792 7.872l0.64 2.688h-29.312c-16.192 0-29.504-0.192-29.696-0.512zM20.16 733.184c-3.84-1.792-6.208-4.224-7.936-8.064-1.216-2.624-1.344-4.16-1.344-16.64 0-11.968 0.192-14.08 1.216-16.32 1.28-2.88 3.968-6.08 5.12-6.08 0.384 0 0.704-0.256 0.704-0.512 0-1.92 3.84-2.048 68.032-2.048 63.744 0 64.832 0.064 67.648 1.344 3.84 1.728 6.272 4.096 8.064 7.936 1.472 3.072 1.536 3.84 1.536 16.96 0 11.968-0.192 14.08-1.216 16.32-1.408 3.136-3.456 5.44-6.464 7.296l-2.24 1.344H23.36l-3.2-1.536zM875.2 733.184c-3.84-1.792-6.208-4.224-7.936-8.064-1.216-2.624-1.344-4.16-1.344-16.64 0-11.968 0.192-14.08 1.216-16.32 1.28-2.88 3.968-6.08 5.12-6.08 0.384 0 0.704-0.256 0.704-0.512 0-1.92 3.84-2.048 68.032-2.048 63.744 0 64.832 0.064 67.648 1.344 3.84 1.728 6.272 4.096 8.064 7.936 1.472 3.072 1.536 3.84 1.536 16.96 0 11.968-0.192 14.08-1.216 16.32-1.408 3.136-3.456 5.44-6.464 7.296l-2.24 1.344h-129.92l-3.2-1.536zM785.6 489.152c-1.536-0.448-6.528-3.776-6.848-4.608-0.064-0.32-2.944-3.584-6.336-7.232-10.24-10.944-10.816-11.968-10.816-17.984 0-7.168 1.856-9.664 17.856-24.128 2.88-2.624 6.208-5.696 7.296-6.784 1.152-1.088 5.376-4.928 9.408-8.576s8.768-7.936 10.496-9.536 3.904-3.648 4.864-4.544 3.328-3.008 5.184-4.8c2.88-2.688 7.936-7.296 21.632-19.776 1.152-1.088 3.392-3.136 4.864-4.544 7.04-6.656 14.144-12.928 16.256-14.4 2.048-1.408 2.944-1.6 8.384-1.6 5.824 0 6.208 0.064 9.088 2.048 1.6 1.152 3.072 2.368 3.2 2.688 0.064 0.32 2.944 3.584 6.336 7.232 10.24 10.944 10.816 11.968 10.816 17.984 0 7.168-1.856 9.664-17.856 24.128-2.88 2.624-6.208 5.696-7.296 6.784-1.152 1.088-5.376 4.928-9.408 8.576s-8.768 7.936-10.496 9.536-3.904 3.648-4.864 4.544-4.608 4.224-8.064 7.424-8.768 8.064-11.776 10.816c-3.008 2.816-6.272 5.824-7.296 6.72s-3.072 2.752-4.544 4.16c-6.592 6.272-14.144 12.928-16.256 14.336-1.856 1.344-3.2 1.6-7.424 1.728-2.816 0.128-5.696 0-6.4-0.192zM234.56 485.056c-1.024-0.64-4.352-3.456-7.296-6.144-2.944-2.752-6.144-5.696-7.104-6.592s-3.264-3.072-5.184-4.864c-1.92-1.728-7.616-7.04-12.736-11.776s-10.816-10.048-12.736-11.84c-1.856-1.728-4.16-3.904-5.184-4.8-0.96-0.896-3.264-3.072-5.184-4.864-1.92-1.728-7.616-7.04-12.736-11.776-5.12-4.672-10.304-9.6-11.648-10.816-1.28-1.28-4.672-4.48-7.552-7.104-2.944-2.624-6.144-6.08-7.104-7.616-1.664-2.624-1.856-3.392-1.856-8.32 0.064-6.592 0.512-7.552 8-15.744 13.312-14.528 13.12-14.4 20.864-14.4 5.12 0 5.632 0.128 8.384 2.112 2.56 1.792 10.88 9.344 20.352 18.368 4.992 4.8 9.472 8.96 18.24 16.96 9.536 8.704 13.312 12.224 17.6 16.32 5.184 4.992 9.664 9.088 18.24 16.96 17.92 16.448 17.856 16.384 19.904 20.288 2.048 3.968 2.112 9.216 0.128 13.248-2.048 4.352-16.256 19.904-20.352 22.4-3.072 1.856-12.16 1.856-15.04 0zM498.432 366.72c-1.792-1.088-3.904-3.2-4.992-4.992l-1.92-3.008V224.96l1.92-3.008c1.088-1.792 3.2-3.904 4.992-4.992l3.008-1.92h31.36l3.008 1.92c1.792 1.088 3.904 3.2 4.992 4.992l1.92 3.008v133.76l-1.92 3.008c-1.088 1.792-3.2 3.904-4.992 4.992l-3.008 1.92h-31.36l-3.008-1.92z"></path>
</svg>
