<svg fill=" #66bb6a" class="icon" viewBox="0 0 1024 1024" version="1.1" xmlns="http://www.w3.org/2000/svg" width="200" height="200">
  <path d="M832.831169 11.702857c33.18026-26.131948 85.843117 14.22961 67.291428 52.862338-33.645714 49.471169-87.113143 82.318961-121.616623 130.992208-5.452468 35.84-1.063896 72.344935-2.067948 108.450909 59.312208 1.529351 118.830545-2.526753 178.06961 1.662337 19.808416 0.332468 35.308052 13.498182 46.212987 28.924676v76.8c-11.829195 15.625974-28.525714 26.131948-45.288727 35.707013-24.795429 181.261299-47.476364 362.921558-73.541818 543.983376-1.263377 27.528312-32.980779 29.722597-54.059221 29.722598-95.285195-0.192831-190.57039-0.066494-285.855584-0.066494-20.739325 0.40561-50.734545-3.723636-52.130909-30.055065-24.935065-181.001974-48.939221-362.196779-72.81039-543.318441-51.997922-14.429091-51.931429-72.743896-41.491948-115.765195 11.037922-25.400519 42.622338-27.129351 66.493506-27.661299 81.521039 0.132987 163.042078 0.332468 244.496624 0.199481 8.577662-59.844156-24.46961-137.974026 31.717402-180.995325C757.560519 87.106494 791.997506 45.880519 832.831169 11.702857M503.488831 441.849351c3.923117 40.162078 9.043117 80.191169 13.365195 120.286753 110.439065-0.465455 220.751792-4.455065 331.131013-6.25039 4.661195-38.034286 8.843636-76.061922 13.571325-114.102857-119.355844 0.199481-238.711688 0.066494-358.067533 0.066494m52.729351 438.252052c1.522701 15.300156 3.324675 30.527169 5.385974 45.820675 80.922597-0.066494 161.918338 1.396364 242.840935-0.797922 0.791273-15.160519 1.795325-30.254545 2.919065-45.341922-83.715325 0.319169-167.430649-0.272623-251.145974 0.319169zM81.521039 576.964156C160.249351 503.023377 279.937662 494.113247 380.542338 518.981818c9.309091 72.876883 21.211429 145.354805 32.914285 217.90587-129.396364 0.192831-258.792727 0.192831-388.122597 0-5.718442-58.387948 12.035325-119.754805 56.187013-159.923532zM23.272727 778.379636c30.587013-41.425455 66.427013 12.49413 100.006234 19.948052 28.791688-1.336519 52.862338-24.935065 82.518442-24.077298 27.461818 1.662338 51.731948 16.364052 76.534026 26.796883 36.504935-18.744519 80.324156-38.965195 120.020779-16.091429 28.725195 9.515221 22.075844 45.149091 26.264935 68.760935-24.336623-7.713247-46.944416-22.341818-72.677403-24.536104-24.935065 5.851429-47.077403 22.142338-73.275844 22.74078-28.592208 0.398961-51.931429-20.347013-79.659221-22.94026-27.062857 6.183896-51.266494 24.742234-80.058181 22.740779-39.430649-2.919065-70.084156-30.919481-99.673767-54.258701v-19.083637zM23.272727 863.019221c135.77974 0.332468 271.625974-0.531948 407.405715 0.398961 6.915325 51.598961 13.963636 103.264416 18.418701 155.195844-115.432727-0.531948-230.998442 1.336519-346.364675-0.791273-38.566234 0.990753-68.355325-29.064312-79.459741-63.840415v-90.963117z"></path>
</svg>
