<svg fill='#ffffff' t="1605256979506" class="icon" viewBox="0 0 1024 1024" version="1.1" xmlns="http://www.w3.org/2000/svg" p-id="1154" xmlns:xlink="http://www.w3.org/1999/xlink" width="200" height="200"><defs><style type="text/css"></style></defs><path d="M635.350414 517.360865l352.222392-352.212251c34.986965-34.986965 35.068094-92.355445-0.273811-127.687209C951.733985 1.886254 894.77115 1.977524 859.571222 37.187594L507.34883 389.399845 155.14672 37.187594C119.926509 1.977524 63.004238 1.845689 27.388523 37.461405c-35.341905 35.331764-35.250634 92.710386-0.273811 127.677068l352.222392 352.222392L27.124853 869.573116c-34.976823 34.986965-35.068094 92.355445 0.273811 127.737915 35.56501 35.56501 92.537986 35.47374 127.737914 0.273811l352.212252-352.212251L859.571222 997.584842c35.189788 35.199929 92.122199 35.341905 127.727773-0.273811 35.341905-35.331764 35.250634-92.710386 0.273811-127.737915l-352.212251-352.20211z" p-id="1155"></path></svg>