<svg class="icon" viewBox="0 0 1024 1024" version="1.1" xmlns="http://www.w3.org/2000/svg"
     xmlns:xlink="http://www.w3.org/1999/xlink" width="200" height="200">
  <path
    d="M647 878q-1-9-6.5-14.5T627 858H397q-8 0-13.5 5.5t-5.5 14q0 8.5 5.5 14.5t13.5 6h230q8 0 13.5-6t6.5-14zM512 168q8 0 14-5.5t6-14.5V20q0-8-6-14t-14-6q-8 0-14 6t-6 14v128q0 9 6 14.5t14 5.5z m172 46q7 4 15 2t12-9l64-111q4-8 2-15.5T768 69q-7-4-15-2t-12 9l-64 111q-4 7-2 15t9 12z m126 126q4 7 12 9t15-2l111-64q7-4 9-11.5t-2-15q-4-7.5-11.5-9.5t-15.5 2l-111 64q-7 4-9 12t2 15z m46 172q0 9 5.5 14.5T876 532h128q9 0 14.5-5.5t5.5-14q0-8.5-5.5-14.5t-14.5-6H876q-9 0-14.5 6t-5.5 14zM340 214q7-4 9-12t-2-15L283 76q-4-7-12-9t-15 2q-7 4-9 11.5t2 15.5l64 111q4 7 12 9t15-2zM214 340q4-7 2-15t-9-12L96 249q-8-4-15.5-2T69 256q-4 7-2 15t9 12l111 64q7 4 15 2t12-9z m-46 172q0-8-5.5-14t-14.5-6H20q-9 0-14.5 6T0 512q0 8 5.5 14t14.5 6h128q9 0 14.5-5.5T168 512z m479 421q-1-9-6.5-14.5T627 913H397q-8 0-13.5 5.5t-5.5 14q0 8.5 5.5 14T397 952h230q8 0 14-5.5t6-13.5z m-202 34q7 22 25.5 35.5T512 1016q23 0 41.5-13.5T579 967H445z m67-735q-88 1-158.5 49T251 411.5Q219 494 239 577t85 143l12 10q20 18 30.5 43t10.5 54h270q0-29 10.5-54t30.5-43l13-10q64-60 84-143t-12-165.5Q741 329 671 281t-159-49z m20 413v25q-1 8-6 13.5t-14 5.5h-4q-8 0-13.5-5.5T489 670v-22q-22-1-41.5-6.5T415 629l13-51q14 8 32.5 13.5T500 597q19 0 30.5-6.5T542 571q0-13-11-21.5T496 533q-35-11-56-29.5T418 454q0-29 19-49.5t54-28.5v-22q0-8 5.5-13t13.5-6h5q8 1 13 6t6 13v19q42 3 63 15l-13 49q-8-4-23.5-9.5T522 422q-21 0-29.5 7.5T484 447q0 10 12.5 18t39.5 18q39 14 56 33.5t16.5 48.5q-0.5 29-20 51T532 645z"
    fill="#FF5252" p-id="6334"></path>
</svg>
